HIERARCHY
ROOT Hips
{
	OFFSET 0.00 0.00 0.00
	CHANNELS 6 Xposition Yposition Zposition Xrotation Yrotation Zrotation
	JOINT Spine
	{
		OFFSET 0.00000 1.66264 2.49395
		CHANNELS 3 Xrotation Yrotation Zrotation
		JOINT Spine1
		{
			OFFSET 0.00000 0.57743 3.27475
			CHANNELS 3 Xrotation Yrotation Zrotation
			JOINT Spine2
			{
				OFFSET 0.00000 0.28982 3.31262
				CHANNELS 3 Xrotation Yrotation Zrotation
				JOINT Spine3
				{
					OFFSET 0.00000 0.00000 3.32527
					CHANNELS 3 Xrotation Yrotation Zrotation
					JOINT Neck
					{
						OFFSET 0.00000 -1.24697 8.72884
						CHANNELS 3 Xrotation Yrotation Zrotation
						JOINT Head
						{
							OFFSET 0.00000 -0.79396 4.50279
							CHANNELS 3 Xrotation Yrotation Zrotation
							End Site
							{
								OFFSET 0.00000 0.00001 5.38279
							}
						}
					}
					JOINT RightShoulder
					{
						OFFSET -1.14808 -1.91346 6.19963
						CHANNELS 3 Xrotation Yrotation Zrotation
						JOINT RightArm
						{
							OFFSET -5.70212 0.00000 0.00000
							CHANNELS 3 Xrotation Yrotation Zrotation
							JOINT RightForeArm
							{
								OFFSET -10.82477 0.00000 0.00000
								CHANNELS 3 Xrotation Yrotation Zrotation
								JOINT RightHand
								{
									OFFSET -10.02856 0.00000 0.00000
									CHANNELS 3 Xrotation Yrotation Zrotation
									JOINT RightHandEnd
									{
										OFFSET -2.68345 0.00000 0.00000
										CHANNELS 3 Xrotation Yrotation Zrotation
										End Site
										{
											OFFSET -2.68345 0.00000 0.00000
										}
									}
									JOINT RightHandThumb1
									{
										OFFSET -1.07338 -1.78897 -0.71559
										CHANNELS 3 Yrotation Xrotation Zrotation
										End Site
										{
											OFFSET -2.59202 -0.69453 0.00000
										}
									}
								}
							}
						}
					}
					JOINT LeftShoulder
					{
						OFFSET 1.14808 -1.91346 6.19963
						CHANNELS 3 Xrotation Yrotation Zrotation
						JOINT LeftArm
						{
							OFFSET 5.70212 0.00000 0.00000
							CHANNELS 3 Xrotation Yrotation Zrotation
							JOINT LeftForeArm
							{
								OFFSET 10.82477 0.00000 0.00000
								CHANNELS 3 Xrotation Yrotation Zrotation
								JOINT LeftHand
								{
									OFFSET 10.02856 0.00000 0.00000
									CHANNELS 3 Xrotation Yrotation Zrotation
									JOINT LeftHandEnd
									{
										OFFSET 2.68345 0.00000 0.00000
										CHANNELS 3 Xrotation Yrotation Zrotation
										End Site
										{
											OFFSET 2.68345 0.00000 0.00000
										}
									}
									JOINT LeftHandThumb1
									{
										OFFSET 1.07338 -1.78897 -0.71559
										CHANNELS 3 Yrotation Xrotation Zrotation
										End Site
										{
											OFFSET 2.59202 -0.69453 0.00000
										}
									}
								}
							}
						}
					}
				}
			}
		}
	}
	JOINT RightUpLeg
	{
		OFFSET -3.40597 0.00000 -0.99500
		CHANNELS 3 Xrotation Yrotation Zrotation
		JOINT RightLeg
		{
			OFFSET 0.00001 0.00000 -17.05191
			CHANNELS 3 Xrotation Yrotation Zrotation
			JOINT RightFoot
			{
				OFFSET 0.00001 0.00000 -15.93260
				CHANNELS 3 Xrotation Yrotation Zrotation
				JOINT RightToeBase
				{
					OFFSET 0.00000 -4.98016 -1.81263
					CHANNELS 3 Xrotation Yrotation Zrotation
					End Site
					{
						OFFSET 0.00000 -2.75539 -0.00000
					}
				}
			}
		}
	}
	JOINT LeftUpLeg
	{
		OFFSET 3.40597 0.00000 -0.99500
		CHANNELS 3 Xrotation Yrotation Zrotation
		JOINT LeftLeg
		{
			OFFSET 0.00001 0.00000 -17.05191
			CHANNELS 3 Xrotation Yrotation Zrotation
			JOINT LeftFoot
			{
				OFFSET 0.00001 0.00000 -15.93260
				CHANNELS 3 Xrotation Yrotation Zrotation
				JOINT LeftToeBase
				{
					OFFSET 0.00000 -4.98016 -1.81263
					CHANNELS 3 Xrotation Yrotation Zrotation
					End Site
					{
						OFFSET 0.00000 -2.75539 -0.00000
					}
				}
			}
		}
	}
}
MOTION
Frames: 7
Frame Time: 0.008342
 -8.6208 -13.4174 35.6385 -1.9585 0.6650 115.1918 0.5219 -2.8632 0.2675 0.3115 0.0453 -0.1779 2.1027 -1.2092 -2.9864 0.7379 0.6530 -0.5370 0.0690 -0.9926 -6.1699 -1.7861 -1.5241 -8.2396 5.3862 -11.5144 2.1877 45.6756 -34.3515 49.3738 0.0000 0.0000 35.3551 -6.8030 23.5229 3.6940 -0.0000 0.0000 0.0000 -0.0000 -0.0000 0.0000 12.0294 5.2734 -4.0906 52.6405 27.9682 -54.9929 -0.0000 -0.0000 -30.0432 -12.0244 -12.3937 -2.0974 -0.0000 -0.0000 -0.0000 -0.0000 0.0000 0.0000 -3.4461 -4.1172 -17.6669 10.2833 0.0000 0.0000 -11.4524 8.9134 -5.0327 -0.4208 0.0000 -0.0000 -16.5151 -15.3511 -1.4535 25.3741 0.0000 0.0000 -6.1047 6.4104 19.0081 -12.1767 0.0000 -0.0000
 -8.6297 -13.2356 35.6318 -2.2028 0.7217 114.0917 0.4870 -2.9349 0.2484 0.2919 0.0755 -0.1784 2.1081 -1.3164 -3.0601 0.7438 0.6363 -0.5298 0.0805 -1.0245 -6.1965 -1.7731 -1.5687 -8.2247 5.3475 -11.6061 2.1520 45.4081 -34.3304 49.1825 0.0000 0.0000 35.3431 -6.7630 23.6557 3.5959 0.0000 0.0000 0.0000 0.0000 -0.0000 0.0000 12.0500 5.2493 -4.1404 52.7306 27.9171 -55.0155 -0.0000 -0.0000 -29.9422 -12.0736 -12.3022 -2.0483 -0.0000 0.0000 0.0000 0.0000 0.0000 0.0000 -3.5670 -4.0369 -17.1282 10.3969 0.0000 0.0000 -11.4807 8.6141 -4.6721 -0.4487 0.0000 -0.0000 -16.2618 -15.8013 -2.0885 23.9580 0.0000 0.0000 -5.8699 6.7275 17.1087 -12.1925 0.0000 -0.0000
 -8.6351 -13.0505 35.6259 -2.4158 0.7535 113.0061 0.4852 -2.9785 0.2272 0.2731 0.0699 -0.1847 2.1202 -1.3846 -3.1249 0.7520 0.6148 -0.5198 0.0920 -1.0606 -6.2360 -1.7621 -1.6231 -8.2378 5.3136 -11.7019 2.1087 45.1096 -34.3739 48.9612 0.0000 0.0000 35.3162 -6.7141 23.7941 3.4853 -0.0000 0.0000 -0.0000 0.0000 0.0000 0.0000 12.0664 5.2141 -4.1953 52.8162 27.8499 -55.0467 -0.0000 -0.0000 -29.8411 -12.0943 -12.2062 -1.9997 -0.0000 0.0000 0.0000 -0.0000 0.0000 0.0000 -3.6334 -3.9383 -16.6207 10.4836 0.0000 0.0000 -11.5059 8.3019 -4.2891 -0.4649 0.0000 -0.0000 -15.9588 -16.2278 -2.5642 22.5686 0.0000 0.0000 -5.6433 7.1330 15.4640 -12.1853 0.0000 -0.0000
 -8.6413 -12.8646 35.6197 -2.6349 0.8219 111.9334 0.4542 -3.0243 0.2083 0.2501 0.0821 -0.1892 2.1399 -1.4573 -3.1865 0.7617 0.5994 -0.5128 0.0950 -1.1024 -6.2877 -1.7436 -1.6886 -8.2753 5.2852 -11.8096 2.0643 44.7738 -34.4698 48.7037 0.0000 0.0000 35.2733 -6.6627 23.9328 3.3669 -0.0000 -0.0000 0.0000 0.0000 -0.0000 0.0000 12.0744 5.1757 -4.2512 52.8902 27.7649 -55.0779 -0.0000 -0.0000 -29.7400 -12.0858 -12.1053 -1.9567 -0.0000 0.0000 0.0000 0.0000 -0.0000 -0.0000 -3.7380 -3.8310 -16.1114 10.5628 0.0000 0.0000 -11.5257 7.9800 -3.9103 -0.4638 0.0000 -0.0000 -15.7025 -16.6380 -2.8401 21.2333 0.0000 0.0000 -5.4179 7.6582 14.1186 -12.1731 0.0000 -0.0000
 -8.6462 -12.6759 35.6143 -2.8319 0.8924 110.8739 0.4282 -3.0628 0.1896 0.2295 0.1070 -0.1916 2.1666 -1.5252 -3.2428 0.7733 0.5901 -0.5102 0.0893 -1.1525 -6.3498 -1.7185 -1.7610 -8.3348 5.2595 -11.9246 2.0203 44.4101 -34.6199 48.4157 0.0000 0.0000 35.2127 -6.6128 24.0684 3.2482 -0.0000 -0.0000 -0.0000 0.0000 -0.0000 -0.0000 12.0753 5.1299 -4.3050 52.9512 27.6665 -55.1097 -0.0000 -0.0000 -29.6434 -12.0437 -12.0011 -1.9169 -0.0000 -0.0000 -0.0000 0.0000 -0.0000 -0.0000 -3.8270 -3.7023 -15.6004 10.6226 0.0000 0.0000 -11.5416 7.6424 -3.5292 -0.4428 0.0000 -0.0000 -15.4370 -17.0136 -2.8676 19.9417 0.0000 0.0000 -5.1843 8.3204 13.0967 -12.1732 0.0000 -0.0000
 -8.6503 -12.4852 35.6093 -3.0185 0.9691 109.8307 0.4011 -3.0996 0.1715 0.2091 0.1361 -0.1941 2.2004 -1.5812 -3.2968 0.7850 0.5850 -0.5104 0.0752 -1.2111 -6.4222 -1.6851 -1.8382 -8.4124 5.2390 -12.0457 1.9799 44.0205 -34.8185 48.0994 0.0000 0.0000 35.1329 -6.5740 24.1990 3.1356 0.0000 -0.0000 -0.0000 -0.0000 0.0000 -0.0000 12.0697 5.0770 -4.3581 52.9953 27.5632 -55.1366 -0.0000 -0.0000 -29.5545 -11.9673 -11.8955 -1.8804 0.0000 0.0000 -0.0000 0.0000 -0.0000 -0.0000 -3.9106 -3.5630 -15.0733 10.6614 0.0000 0.0000 -11.5471 7.2862 -3.1624 -0.4031 0.0000 -0.0000 -15.1772 -17.3595 -2.6080 18.7037 0.0000 0.0000 -4.9383 9.1229 12.3844 -12.1981 0.0000 -0.0000
 -8.6538 -12.2911 35.6048 -3.1831 1.0534 108.8008 0.3733 -3.1261 0.1559 0.1893 0.1659 -0.1965 2.2424 -1.6222 -3.3483 0.7962 0.5853 -0.5148 0.0521 -1.2763 -6.5029 -1.6399 -1.9174 -8.5041 5.2220 -12.1705 1.9452 43.6107 -35.0588 47.7578 0.0000 0.0000 35.0306 -6.5520 24.3221 3.0347 -0.0000 -0.0000 0.0000 0.0000 -0.0000 0.0000 12.0562 5.0218 -4.4095 53.0213 27.4593 -55.1534 -0.0000 -0.0000 -29.4764 -11.8595 -11.7923 -1.8468 0.0000 0.0000 0.0000 -0.0000 0.0000 0.0000 -3.9893 -3.3985 -14.5259 10.6850 0.0000 0.0000 -11.5470 6.9152 -2.8100 -0.3459 0.0000 -0.0000 -14.9115 -17.6556 -2.0307 17.5127 0.0000 0.0000 -4.6739 10.0574 11.9594 -12.2533 0.0000 -0.0000
